<svg width="18" height="17" viewBox="0 0 18 17" fill="none" xmlns="http://www.w3.org/2000/svg">
<path d="M8.91992 0.5C8.99089 0.500024 9.06581 0.51425 9.14746 0.548828L9.23242 0.59082C9.29173 0.624664 9.34236 0.670564 9.38379 0.739258L9.42188 0.816406L9.42285 0.818359L11.377 5.44434L11.4932 5.72168L11.7939 5.74805L16.8252 6.1875C16.9561 6.20672 17.0394 6.23876 17.0918 6.27051L17.1348 6.30176C17.1866 6.347 17.2323 6.40511 17.2705 6.48145L17.3066 6.56445C17.3435 6.66577 17.3505 6.76504 17.3271 6.87305C17.3099 6.953 17.2657 7.03869 17.1631 7.13184L13.334 10.4326L13.1045 10.6299L13.1738 10.9248L14.3193 15.8369C14.3419 15.9351 14.3392 16.0076 14.3232 16.0654L14.3027 16.1191C14.2624 16.2039 14.2123 16.2755 14.1504 16.3359L14.084 16.3926C14.0272 16.4364 13.9626 16.4679 13.8838 16.4854L13.7998 16.498C13.7327 16.5038 13.6647 16.4947 13.5898 16.4609L13.5127 16.4189L13.501 16.4121L9.17773 13.8135L8.91992 13.6582L8.66211 13.8135L4.33789 16.4121L4.32812 16.4189C4.22116 16.4869 4.12867 16.5056 4.03809 16.498C3.94991 16.4907 3.8777 16.4689 3.81543 16.4336L3.75586 16.3936C3.68576 16.3391 3.62752 16.2751 3.58008 16.1992L3.53613 16.1182C3.5055 16.0539 3.48984 15.9679 3.52051 15.835L3.51953 15.834L4.66602 10.9248L4.73438 10.6299L4.50586 10.4326L0.676758 7.13184C0.575121 7.03843 0.531045 6.95247 0.513672 6.87207C0.496054 6.79042 0.495478 6.71409 0.511719 6.63867L0.533203 6.56348C0.575784 6.44589 0.634825 6.36313 0.705078 6.30176C0.750946 6.26175 0.839848 6.2125 1.01172 6.1875L6.0459 5.74805L6.3457 5.72168L6.46289 5.44434L8.41699 0.818359V0.816406C8.45256 0.731242 8.49732 0.67215 8.55078 0.628906L8.60742 0.59082C8.72281 0.525162 8.82513 0.5 8.91992 0.5Z" fill="#006A71" stroke="#006A71"/>
</svg>
