<svg width="24" height="24" viewBox="0 0 24 24" fill="none" xmlns="http://www.w3.org/2000/svg">
<path d="M18.625 10.9474H4.375V5.42105H18.625M16.8438 17.5789C16.3713 17.5789 15.9183 17.4043 15.5842 17.0934C15.2502 16.7824 15.0625 16.3608 15.0625 15.9211C15.0625 15.4814 15.2502 15.0597 15.5842 14.7487C15.9183 14.4378 16.3713 14.2632 16.8438 14.2632C17.3162 14.2632 17.7692 14.4378 18.1033 14.7487C18.4373 15.0597 18.625 15.4814 18.625 15.9211C18.625 16.3608 18.4373 16.7824 18.1033 17.0934C17.7692 17.4043 17.3162 17.5789 16.8438 17.5789ZM6.15625 17.5789C5.68383 17.5789 5.23077 17.4043 4.89672 17.0934C4.56267 16.7824 4.375 16.3608 4.375 15.9211C4.375 15.4814 4.56267 15.0597 4.89672 14.7487C5.23077 14.4378 5.68383 14.2632 6.15625 14.2632C6.62867 14.2632 7.08174 14.4378 7.41578 14.7487C7.74983 15.0597 7.9375 15.4814 7.9375 15.9211C7.9375 16.3608 7.74983 16.7824 7.41578 17.0934C7.08174 17.4043 6.62867 17.5789 6.15625 17.5789ZM2 16.4737C2 17.4463 2.46312 18.3195 3.1875 18.9274V20.8947C3.1875 21.1879 3.31261 21.469 3.53531 21.6763C3.75801 21.8836 4.06006 22 4.375 22H5.5625C5.87744 22 6.17949 21.8836 6.40219 21.6763C6.62489 21.469 6.75 21.1879 6.75 20.8947V19.7895H16.25V20.8947C16.25 21.1879 16.3751 21.469 16.5978 21.6763C16.8205 21.8836 17.1226 22 17.4375 22H18.625C18.9399 22 19.242 21.8836 19.4647 21.6763C19.6874 21.469 19.8125 21.1879 19.8125 20.8947V18.9274C20.5369 18.3195 21 17.4463 21 16.4737V5.42105C21 1.55263 16.7487 1 11.5 1C6.25125 1 2 1.55263 2 5.42105V16.4737Z" fill="#23262C"/>
</svg>
