<svg width="21" height="20" viewBox="0 0 21 20" fill="none" xmlns="http://www.w3.org/2000/svg">
<path d="M10.5 8C10.9596 8 11.4148 7.90947 11.8394 7.73358C12.264 7.55769 12.6499 7.29988 12.9749 6.97487C13.2999 6.64987 13.5577 6.26403 13.7336 5.83939C13.9095 5.41475 14 4.95963 14 4.5C14 4.04037 13.9095 3.58525 13.7336 3.16061C13.5577 2.73597 13.2999 2.35013 12.9749 2.02513C12.6499 1.70012 12.264 1.44231 11.8394 1.26642C11.4148 1.09053 10.9596 1 10.5 1C9.57174 1 8.6815 1.36875 8.02513 2.02513C7.36875 2.6815 7 3.57174 7 4.5C7 5.42826 7.36875 6.3185 8.02513 6.97487C8.6815 7.63125 9.57174 8 10.5 8ZM1.5 18.4V19H19.5V18.4C19.5 16.16 19.5 15.04 19.064 14.184C18.6805 13.4314 18.0686 12.8195 17.316 12.436C16.46 12 15.34 12 13.1 12H7.9C5.66 12 4.54 12 3.684 12.436C2.93139 12.8195 2.31949 13.4314 1.936 14.184C1.5 15.04 1.5 16.16 1.5 18.4Z" stroke="#23262C" stroke-width="2" stroke-linecap="round" stroke-linejoin="round"/>
</svg>
