<svg width="31" height="30" viewBox="0 0 31 30" fill="none" xmlns="http://www.w3.org/2000/svg">
<path d="M15.5 27.5C15.2083 27.5 14.9583 27.4167 14.75 27.25C14.5417 27.0833 14.3854 26.8646 14.2813 26.5938C13.8854 25.4271 13.3854 24.3333 12.7813 23.3125C12.1979 22.2917 11.375 21.0938 10.3125 19.7188C9.25 18.3438 8.38542 17.0312 7.71875 15.7812C7.07292 14.5312 6.75 13.0208 6.75 11.25C6.75 8.8125 7.59375 6.75 9.28125 5.0625C10.9896 3.35417 13.0625 2.5 15.5 2.5C17.9375 2.5 20 3.35417 21.6875 5.0625C23.3958 6.75 24.25 8.8125 24.25 11.25C24.25 13.1458 23.8854 14.7292 23.1562 16C22.4479 17.25 21.625 18.4896 20.6875 19.7188C19.5625 21.2188 18.7083 22.4688 18.125 23.4688C17.5625 24.4479 17.0938 25.4896 16.7188 26.5938C16.6146 26.8854 16.4479 27.1146 16.2188 27.2812C16.0104 27.4271 15.7708 27.5 15.5 27.5ZM15.5 23.0312C15.8542 22.3229 16.25 21.625 16.6875 20.9375C17.1458 20.25 17.8125 19.3333 18.6875 18.1875C19.5833 17.0208 20.3125 15.9479 20.875 14.9687C21.4583 13.9687 21.75 12.7292 21.75 11.25C21.75 9.52083 21.1354 8.05208 19.9063 6.84375C18.6979 5.61458 17.2292 5 15.5 5C13.7708 5 12.2917 5.61458 11.0625 6.84375C9.85417 8.05208 9.25 9.52083 9.25 11.25C9.25 12.7292 9.53125 13.9687 10.0938 14.9687C10.6771 15.9479 11.4167 17.0208 12.3125 18.1875C13.1875 19.3333 13.8438 20.25 14.2813 20.9375C14.7396 21.625 15.1458 22.3229 15.5 23.0312ZM15.5 14.375C16.375 14.375 17.1146 14.0729 17.7188 13.4688C18.3229 12.8646 18.625 12.125 18.625 11.25C18.625 10.375 18.3229 9.63542 17.7188 9.03125C17.1146 8.42708 16.375 8.125 15.5 8.125C14.625 8.125 13.8854 8.42708 13.2813 9.03125C12.6771 9.63542 12.375 10.375 12.375 11.25C12.375 12.125 12.6771 12.8646 13.2813 13.4688C13.8854 14.0729 14.625 14.375 15.5 14.375Z" fill="#23262C"/>
</svg>
