<svg width="24" height="24" viewBox="0 0 24 24" fill="none" xmlns="http://www.w3.org/2000/svg">
<path d="M4.81818 8.4V21H1V8.4H4.81818ZM8.63636 21C8.13004 21 7.64446 20.7787 7.28643 20.3849C6.92841 19.9911 6.72727 19.457 6.72727 18.9V8.4C6.72727 7.8225 6.93727 7.2975 7.29045 6.9195L13.5714 0L14.5832 1.113C14.8409 1.3965 15.0032 1.785 15.0032 2.2155L14.9745 2.5515L14.0677 7.35H20.0909C21.1505 7.35 22 8.295 22 9.45V11.55C22 11.823 21.9523 12.075 21.8664 12.3165L18.9836 19.719C18.6973 20.475 18.0195 21 17.2273 21H8.63636ZM8.63636 18.9H17.2559L20.0909 11.55V9.45H11.7005L12.7791 3.864L8.63636 8.4315V18.9Z" fill="#23262C"/>
</svg>
