<svg width="99" height="17" viewBox="0 0 99 17" fill="none" xmlns="http://www.w3.org/2000/svg">
<path d="M29.3096 0.5C29.3805 0.500024 29.4555 0.51425 29.5371 0.548828L29.6221 0.59082C29.6814 0.624664 29.732 0.670564 29.7734 0.739258L29.8115 0.816406L29.8125 0.818359L31.7666 5.44434L31.8828 5.72168L32.1836 5.74805L37.2148 6.1875C37.3458 6.20672 37.429 6.23876 37.4814 6.27051L37.5244 6.30176C37.5762 6.347 37.622 6.40511 37.6602 6.48145L37.6963 6.56445C37.7332 6.66577 37.7401 6.76504 37.7168 6.87305C37.6995 6.953 37.6554 7.03869 37.5527 7.13184L33.7236 10.4326L33.4941 10.6299L33.5635 10.9248L34.709 15.8369C34.7315 15.9351 34.7289 16.0076 34.7129 16.0654L34.6924 16.1191C34.652 16.2039 34.6019 16.2755 34.54 16.3359L34.4736 16.3926C34.4168 16.4364 34.3523 16.4679 34.2734 16.4854L34.1895 16.498C34.1224 16.5038 34.0543 16.4947 33.9795 16.4609L33.9023 16.4189L33.8906 16.4121L29.5674 13.8135L29.3096 13.6582L29.0518 13.8135L24.7275 16.4121L24.7178 16.4189C24.6108 16.4869 24.5183 16.5056 24.4277 16.498C24.3396 16.4907 24.2673 16.4689 24.2051 16.4336L24.1455 16.3936C24.0754 16.3391 24.0172 16.2751 23.9697 16.1992L23.9258 16.1182C23.8951 16.0539 23.8795 15.9679 23.9102 15.835L23.9092 15.834L25.0557 10.9248L25.124 10.6299L24.8955 10.4326L21.0664 7.13184C20.9648 7.03843 20.9207 6.95247 20.9033 6.87207C20.8857 6.79042 20.8851 6.71409 20.9014 6.63867L20.9229 6.56348C20.9654 6.44589 21.0245 6.36313 21.0947 6.30176C21.1406 6.26175 21.2295 6.2125 21.4014 6.1875L26.4355 5.74805L26.7354 5.72168L26.8525 5.44434L28.8066 0.818359V0.816406C28.8422 0.731242 28.887 0.67215 28.9404 0.628906L28.9971 0.59082C29.1125 0.525162 29.2148 0.5 29.3096 0.5Z" fill="#006A71" stroke="#006A71"/>
<path d="M49.6982 0.5C49.7692 0.500024 49.8441 0.51425 49.9258 0.548828L50.0107 0.59082C50.0701 0.624664 50.1207 0.670564 50.1621 0.739258L50.2002 0.816406L50.2012 0.818359L52.1553 5.44434L52.2715 5.72168L52.5723 5.74805L57.6035 6.1875C57.7344 6.20672 57.8177 6.23876 57.8701 6.27051L57.9131 6.30176C57.9649 6.347 58.0107 6.40511 58.0488 6.48145L58.085 6.56445C58.1219 6.66577 58.1288 6.76504 58.1055 6.87305C58.0882 6.953 58.044 7.03869 57.9414 7.13184L54.1123 10.4326L53.8828 10.6299L53.9521 10.9248L55.0977 15.8369C55.1202 15.9351 55.1176 16.0076 55.1016 16.0654L55.0811 16.1191C55.0407 16.2039 54.9906 16.2755 54.9287 16.3359L54.8623 16.3926C54.8055 16.4364 54.741 16.4679 54.6621 16.4854L54.5781 16.498C54.511 16.5038 54.443 16.4947 54.3682 16.4609L54.291 16.4189L54.2793 16.4121L49.9561 13.8135L49.6982 13.6582L49.4404 13.8135L45.1162 16.4121L45.1064 16.4189C44.9995 16.4869 44.907 16.5056 44.8164 16.498C44.7282 16.4907 44.656 16.4689 44.5938 16.4336L44.5342 16.3936C44.4641 16.3391 44.4058 16.2751 44.3584 16.1992L44.3145 16.1182C44.2838 16.0539 44.2682 15.9679 44.2988 15.835L44.2979 15.834L45.4443 10.9248L45.5127 10.6299L45.2842 10.4326L41.4551 7.13184C41.3534 7.03843 41.3094 6.95247 41.292 6.87207C41.2744 6.79042 41.2738 6.71409 41.29 6.63867L41.3115 6.56348C41.3541 6.44589 41.4131 6.36313 41.4834 6.30176C41.5293 6.26175 41.6182 6.2125 41.79 6.1875L46.8242 5.74805L47.124 5.72168L47.2412 5.44434L49.1953 0.818359V0.816406C49.2309 0.731242 49.2756 0.67215 49.3291 0.628906L49.3857 0.59082C49.5011 0.525162 49.6035 0.5 49.6982 0.5Z" fill="#006A71" stroke="#006A71"/>
<path d="M70.04 0.5C70.111 0.500024 70.1859 0.51425 70.2676 0.548828L70.3525 0.59082C70.4118 0.624664 70.4625 0.670564 70.5039 0.739258L70.542 0.816406L70.543 0.818359L72.4971 5.44434L72.6133 5.72168L72.9141 5.74805L77.9453 6.1875C78.0762 6.20672 78.1595 6.23876 78.2119 6.27051L78.2549 6.30176C78.3067 6.347 78.3525 6.40511 78.3906 6.48145L78.4268 6.56445C78.4637 6.66577 78.4706 6.76504 78.4473 6.87305C78.43 6.953 78.3858 7.03869 78.2832 7.13184L74.4541 10.4326L74.2246 10.6299L74.2939 10.9248L75.4395 15.8369C75.462 15.9351 75.4594 16.0076 75.4434 16.0654L75.4229 16.1191C75.3825 16.2039 75.3324 16.2755 75.2705 16.3359L75.2041 16.3926C75.1473 16.4364 75.0828 16.4679 75.0039 16.4854L74.9199 16.498C74.8528 16.5038 74.7848 16.4947 74.71 16.4609L74.6328 16.4189L74.6211 16.4121L70.2979 13.8135L70.04 13.6582L69.7822 13.8135L65.458 16.4121L65.4482 16.4189C65.3413 16.4869 65.2488 16.5056 65.1582 16.498C65.07 16.4907 64.9978 16.4689 64.9355 16.4336L64.876 16.3936C64.8059 16.3391 64.7476 16.2751 64.7002 16.1992L64.6562 16.1182C64.6256 16.0539 64.61 15.9679 64.6406 15.835L64.6396 15.834L65.7861 10.9248L65.8545 10.6299L65.626 10.4326L61.7969 7.13184C61.6952 7.03843 61.6512 6.95247 61.6338 6.87207C61.6162 6.79042 61.6156 6.71409 61.6318 6.63867L61.6533 6.56348C61.6959 6.44589 61.7549 6.36313 61.8252 6.30176C61.8711 6.26175 61.96 6.2125 62.1318 6.1875L67.166 5.74805L67.4658 5.72168L67.583 5.44434L69.5371 0.818359V0.816406C69.5727 0.731242 69.6174 0.67215 69.6709 0.628906L69.7275 0.59082C69.8429 0.525162 69.9452 0.5 70.04 0.5Z" fill="#006A71" stroke="#006A71"/>
<path d="M90.0791 0.5C90.1501 0.500024 90.225 0.51425 90.3066 0.548828L90.3916 0.59082C90.4509 0.624664 90.5015 0.670564 90.543 0.739258L90.5811 0.816406L90.582 0.818359L92.5361 5.44434L92.6523 5.72168L92.9531 5.74805L97.9844 6.1875C98.1153 6.20672 98.1986 6.23876 98.251 6.27051L98.2939 6.30176C98.3458 6.347 98.3915 6.40511 98.4297 6.48145L98.4658 6.56445C98.5027 6.66577 98.5096 6.76504 98.4863 6.87305C98.4691 6.953 98.4249 7.03869 98.3223 7.13184L94.4932 10.4326L94.2637 10.6299L94.333 10.9248L95.4785 15.8369C95.5011 15.9351 95.4984 16.0076 95.4824 16.0654L95.4619 16.1191C95.4215 16.2039 95.3715 16.2755 95.3096 16.3359L95.2432 16.3926C95.1864 16.4364 95.1218 16.4679 95.043 16.4854L94.959 16.498C94.8919 16.5038 94.8239 16.4947 94.749 16.4609L94.6719 16.4189L94.6602 16.4121L90.3369 13.8135L90.0791 13.6582L89.8213 13.8135L85.4971 16.4121L85.4873 16.4189C85.3803 16.4869 85.2879 16.5056 85.1973 16.498C85.1091 16.4907 85.0369 16.4689 84.9746 16.4336L84.915 16.3936C84.8449 16.3391 84.7867 16.2751 84.7393 16.1992L84.6953 16.1182C84.6647 16.0539 84.649 15.9679 84.6797 15.835L84.6787 15.834L85.8252 10.9248L85.8936 10.6299L85.665 10.4326L81.8359 7.13184C81.7343 7.03843 81.6902 6.95247 81.6729 6.87207C81.6552 6.79042 81.6547 6.71409 81.6709 6.63867L81.6924 6.56348C81.735 6.44589 81.794 6.36313 81.8643 6.30176C81.9101 6.26175 81.999 6.2125 82.1709 6.1875L87.2051 5.74805L87.5049 5.72168L87.6221 5.44434L89.5762 0.818359V0.816406C89.6117 0.731242 89.6565 0.67215 89.71 0.628906L89.7666 0.59082C89.882 0.525162 89.9843 0.5 90.0791 0.5Z" stroke="#23262C"/>
<path d="M8.91992 0.5C8.99089 0.500024 9.06581 0.51425 9.14746 0.548828L9.23242 0.59082C9.29173 0.624664 9.34236 0.670564 9.38379 0.739258L9.42188 0.816406L9.42285 0.818359L11.377 5.44434L11.4932 5.72168L11.7939 5.74805L16.8252 6.1875C16.9561 6.20672 17.0394 6.23876 17.0918 6.27051L17.1348 6.30176C17.1866 6.347 17.2323 6.40511 17.2705 6.48145L17.3066 6.56445C17.3435 6.66577 17.3505 6.76504 17.3271 6.87305C17.3099 6.953 17.2657 7.03869 17.1631 7.13184L13.334 10.4326L13.1045 10.6299L13.1738 10.9248L14.3193 15.8369C14.3419 15.9351 14.3392 16.0076 14.3232 16.0654L14.3027 16.1191C14.2624 16.2039 14.2123 16.2755 14.1504 16.3359L14.084 16.3926C14.0272 16.4364 13.9626 16.4679 13.8838 16.4854L13.7998 16.498C13.7327 16.5038 13.6647 16.4947 13.5898 16.4609L13.5127 16.4189L13.501 16.4121L9.17773 13.8135L8.91992 13.6582L8.66211 13.8135L4.33789 16.4121L4.32812 16.4189C4.22116 16.4869 4.12867 16.5056 4.03809 16.498C3.94991 16.4907 3.8777 16.4689 3.81543 16.4336L3.75586 16.3936C3.68576 16.3391 3.62752 16.2751 3.58008 16.1992L3.53613 16.1182C3.5055 16.0539 3.48984 15.9679 3.52051 15.835L3.51953 15.834L4.66602 10.9248L4.73438 10.6299L4.50586 10.4326L0.676758 7.13184C0.575121 7.03843 0.531045 6.95247 0.513672 6.87207C0.496054 6.79042 0.495478 6.71409 0.511719 6.63867L0.533203 6.56348C0.575784 6.44589 0.634825 6.36313 0.705078 6.30176C0.750946 6.26175 0.839848 6.2125 1.01172 6.1875L6.0459 5.74805L6.3457 5.72168L6.46289 5.44434L8.41699 0.818359V0.816406C8.45256 0.731242 8.49732 0.67215 8.55078 0.628906L8.60742 0.59082C8.72281 0.525162 8.82513 0.5 8.91992 0.5Z" fill="#006A71" stroke="#006A71"/>
</svg>
