<svg width="19" height="24" viewBox="0 0 19 24" fill="none" xmlns="http://www.w3.org/2000/svg">
<path id="Vector" d="M4.15625 0C4.78614 0 5.39023 0.252856 5.83563 0.702944C6.28103 1.15303 6.53125 1.76348 6.53125 2.4C6.53125 3.03652 6.28103 3.64697 5.83563 4.09706C5.39023 4.54714 4.78614 4.8 4.15625 4.8C3.52636 4.8 2.92227 4.54714 2.47687 4.09706C2.03147 3.64697 1.78125 3.03652 1.78125 2.4C1.78125 1.76348 2.03147 1.15303 2.47687 0.702944C2.92227 0.252856 3.52636 0 4.15625 0ZM2.375 6H5.9375C6.56739 6 7.17148 6.25286 7.61688 6.70294C8.06228 7.15303 8.3125 7.76348 8.3125 8.4V15H6.53125V24H1.78125V15H0V8.4C0 7.76348 0.250222 7.15303 0.695621 6.70294C1.14102 6.25286 1.74511 6 2.375 6ZM14.8438 0C15.4736 0 16.0777 0.252856 16.5231 0.702944C16.9685 1.15303 17.2188 1.76348 17.2188 2.4C17.2188 3.03652 16.9685 3.64697 16.5231 4.09706C16.0777 4.54714 15.4736 4.8 14.8438 4.8C14.2139 4.8 13.6098 4.54714 13.1644 4.09706C12.719 3.64697 12.4688 3.03652 12.4688 2.4C12.4688 1.76348 12.719 1.15303 13.1644 0.702944C13.6098 0.252856 14.2139 0 14.8438 0ZM13.0625 6H16.625C17.2549 6 17.859 6.25286 18.3044 6.70294C18.7498 7.15303 19 7.76348 19 8.4V15H17.2188V24H12.4688V15H10.6875V8.4C10.6875 7.76348 10.9377 7.15303 11.3831 6.70294C11.8285 6.25286 12.4326 6 13.0625 6Z" fill="#006A71"/>
</svg>
