<svg width="18" height="18" viewBox="0 0 18 18" fill="none" xmlns="http://www.w3.org/2000/svg">
<path d="M9 0.5C9.09131 0.500082 9.19161 0.525452 9.30762 0.594727C9.36775 0.630653 9.42118 0.681081 9.46582 0.758789L9.50781 0.845703V0.84668L11.4795 5.74512L11.5928 6.02832L11.8975 6.05664L16.9785 6.52246C17.1478 6.54934 17.2359 6.6001 17.2822 6.64258C17.354 6.70835 17.4166 6.80035 17.4629 6.93359C17.503 7.04928 17.5108 7.1642 17.4854 7.28809C17.4652 7.3863 17.414 7.48475 17.3047 7.58691L13.4473 11.0762L13.2314 11.2715L13.2949 11.5557L14.4512 16.7568C14.4838 16.9058 14.4679 17.0091 14.4316 17.0889C14.3747 17.2143 14.2986 17.3111 14.2041 17.3877C14.1267 17.4503 14.0375 17.4875 13.9219 17.498C13.8583 17.5038 13.7922 17.4952 13.7178 17.46L13.6406 17.416L13.6289 17.4082L9.2666 14.6562L9 14.4883L8.73242 14.6562L4.37012 17.4082L4.35938 17.415C4.25152 17.4869 4.162 17.5055 4.07617 17.498C3.96169 17.4881 3.87288 17.4514 3.7959 17.3887C3.7003 17.3108 3.62433 17.2129 3.56738 17.0879C3.53158 17.0093 3.51566 16.9059 3.54883 16.7549L3.54785 16.7539L4.7041 11.5557L4.76758 11.2715L4.55176 11.0762L0.694336 7.58691C0.586123 7.48441 0.534909 7.38565 0.514648 7.28711C0.489017 7.16238 0.497466 7.04754 0.537109 6.93262C0.58242 6.80131 0.644049 6.70937 0.716797 6.64258C0.763897 6.5994 0.851757 6.54865 1.01855 6.52246L6.10156 6.05664L6.40625 6.02832L6.51953 5.74512L8.49121 0.84668L8.49219 0.845703C8.54357 0.716593 8.61138 0.642556 8.69141 0.594727C8.8076 0.525339 8.90857 0.5 9 0.5Z" fill="#006A71" stroke="#006A71"/>
</svg>
