<svg width="14" height="18" viewBox="0 0 14 18" fill="none" xmlns="http://www.w3.org/2000/svg">
<path d="M7.33366 13.5833C7.77569 13.5833 8.19961 13.4077 8.51217 13.0952C8.82473 12.7826 9.00033 12.3587 9.00033 11.9167C9.00033 11.4746 8.82473 11.0507 8.51217 10.7382C8.19961 10.4256 7.77569 10.25 7.33366 10.25C6.89163 10.25 6.46771 10.4256 6.15515 10.7382C5.84259 11.0507 5.66699 11.4746 5.66699 11.9167C5.66699 12.3587 5.84259 12.7826 6.15515 13.0952C6.46771 13.4077 6.89163 13.5833 7.33366 13.5833ZM12.3337 6.08333C12.7757 6.08333 13.1996 6.25893 13.5122 6.57149C13.8247 6.88405 14.0003 7.30797 14.0003 7.75V16.0833C14.0003 16.5254 13.8247 16.9493 13.5122 17.2618C13.1996 17.5744 12.7757 17.75 12.3337 17.75H2.33366C1.89163 17.75 1.46771 17.5744 1.15515 17.2618C0.842587 16.9493 0.666992 16.5254 0.666992 16.0833V7.75C0.666992 7.30797 0.842587 6.88405 1.15515 6.57149C1.46771 6.25893 1.89163 6.08333 2.33366 6.08333H3.16699V4.41667C3.16699 3.3116 3.60598 2.25179 4.38738 1.47039C5.16878 0.688987 6.22859 0.25 7.33366 0.25C7.88083 0.25 8.42265 0.357774 8.92817 0.567169C9.4337 0.776563 9.89303 1.08348 10.2799 1.47039C10.6668 1.8573 10.9738 2.31663 11.1832 2.82215C11.3926 3.32768 11.5003 3.86949 11.5003 4.41667V6.08333H12.3337ZM7.33366 1.91667C6.67062 1.91667 6.03473 2.18006 5.56589 2.6489C5.09705 3.11774 4.83366 3.75363 4.83366 4.41667V6.08333H9.83366V4.41667C9.83366 3.75363 9.57027 3.11774 9.10143 2.6489C8.63259 2.18006 7.9967 1.91667 7.33366 1.91667Z" fill="#006A71"/>
</svg>
