<svg width="18" height="22" viewBox="0 0 18 22" fill="none" xmlns="http://www.w3.org/2000/svg">
<path d="M9 0.916504C11.3869 0.916504 13.6761 1.86472 15.364 3.55254C17.0518 5.24037 18 7.52955 18 9.9165C18 12.9905 16.324 15.5065 14.558 17.3115C13.6757 18.2036 12.7129 19.0123 11.682 19.7275L11.256 20.0175L11.056 20.1505L10.679 20.3905L10.343 20.5955L9.927 20.8375C9.64464 20.9987 9.32513 21.0834 9 21.0834C8.67488 21.0834 8.35537 20.9987 8.073 20.8375L7.657 20.5955L7.137 20.2755L6.945 20.1505L6.535 19.8775C5.42283 19.125 4.3869 18.2656 3.442 17.3115C1.676 15.5055 0 12.9905 0 9.9165C0 7.52955 0.948212 5.24037 2.63604 3.55254C4.32387 1.86472 6.61305 0.916504 9 0.916504ZM9 6.9165C8.60604 6.9165 8.21593 6.9941 7.85195 7.14486C7.48797 7.29563 7.15726 7.51661 6.87868 7.79518C6.6001 8.07376 6.37913 8.40448 6.22836 8.76845C6.0776 9.13243 6 9.52254 6 9.9165C6 10.3105 6.0776 10.7006 6.22836 11.0646C6.37913 11.4285 6.6001 11.7592 6.87868 12.0378C7.15726 12.3164 7.48797 12.5374 7.85195 12.6881C8.21593 12.8389 8.60604 12.9165 9 12.9165C9.79565 12.9165 10.5587 12.6004 11.1213 12.0378C11.6839 11.4752 12 10.7122 12 9.9165C12 9.12085 11.6839 8.35779 11.1213 7.79518C10.5587 7.23257 9.79565 6.9165 9 6.9165Z" fill="black"/>
</svg>
