<svg width="20" height="20" viewBox="0 0 20 20" fill="none" xmlns="http://www.w3.org/2000/svg">
<path d="M9.95506 16.4848L5.12921 19.42C4.91602 19.557 4.69314 19.6157 4.46057 19.5961C4.228 19.5765 4.0245 19.4983 3.85007 19.3613C3.67564 19.2243 3.53997 19.0533 3.44307 18.8482C3.34617 18.6431 3.32678 18.413 3.38493 18.1579L4.66407 12.6104L0.390575 8.88269C0.196766 8.70658 0.0758288 8.50582 0.0277641 8.28039C-0.0203006 8.05497 -0.00595877 7.83503 0.0707897 7.62057C0.147538 7.4061 0.263824 7.22999 0.419646 7.09223C0.575469 6.95448 0.788659 6.86642 1.05922 6.82807L6.69907 6.32909L8.87942 1.10447C8.97632 0.869653 9.12672 0.693542 9.33061 0.576135C9.53449 0.458728 9.74265 0.400024 9.95506 0.400024C10.1675 0.400024 10.3756 0.458728 10.5795 0.576135C10.7834 0.693542 10.9338 0.869653 11.0307 1.10447L13.2111 6.32909L18.8509 6.82807C19.1222 6.8672 19.3354 6.95526 19.4905 7.09223C19.6455 7.22921 19.7618 7.40532 19.8393 7.62057C19.9169 7.83581 19.9316 8.05615 19.8835 8.28157C19.8355 8.50699 19.7141 8.70737 19.5195 8.88269L15.2461 12.6104L16.5252 18.1579C16.5833 18.4122 16.564 18.6424 16.4671 18.8482C16.3701 19.0541 16.2345 19.2251 16.0601 19.3613C15.8856 19.4975 15.6821 19.5757 15.4496 19.5961C15.217 19.6164 14.9941 19.5577 14.7809 19.42L9.95506 16.4848Z" fill="#006A71"/>
</svg>
