<svg width="26" height="26" viewBox="0 0 26 26" fill="none" xmlns="http://www.w3.org/2000/svg">
<path d="M2.16699 13.0001C2.16699 18.9833 7.01708 23.8334 13.0003 23.8334C18.9836 23.8334 23.8337 18.9833 23.8337 13.0001C23.8337 7.01683 18.9836 2.16675 13.0003 2.16675C7.01708 2.16675 2.16699 7.01683 2.16699 13.0001Z" stroke="#23262C" stroke-width="1.5" stroke-linecap="round" stroke-linejoin="round"/>
<path d="M14.0838 2.22095C14.0838 2.22095 17.3338 6.50011 17.3338 13.0001C17.3338 19.5001 14.0838 23.7793 14.0838 23.7793M11.9171 23.7793C11.9171 23.7793 8.66711 19.5001 8.66711 13.0001C8.66711 6.50011 11.9171 2.22095 11.9171 2.22095M2.84961 16.7918H23.1513M2.84961 9.20845H23.1513" stroke="#23262C" stroke-width="1.5" stroke-linecap="round" stroke-linejoin="round"/>
</svg>
