<svg width="24" height="25" viewBox="0 0 24 25" fill="none" xmlns="http://www.w3.org/2000/svg">
<path d="M12 6.5L13.434 9.27725L16.5 9.72275L14.25 11.75L15 14.75L12 13.0625L9 14.75L9.75 11.75L7.5 9.72275L10.65 9.27725L12 6.5Z" fill="white"/>
<path d="M13.302 23L12 22.25L15 17H19.5C19.6971 17.0003 19.8923 16.9617 20.0744 16.8864C20.2565 16.8111 20.422 16.7007 20.5613 16.5613C20.7007 16.422 20.8111 16.2565 20.8864 16.0744C20.9617 15.8923 21.0003 15.6971 21 15.5V6.5C21.0003 6.30293 20.9617 6.10775 20.8864 5.92562C20.8111 5.7435 20.7007 5.57803 20.5613 5.43868C20.422 5.29933 20.2565 5.18885 20.0744 5.11358C19.8923 5.0383 19.6971 4.9997 19.5 5H4.5C4.30293 4.9997 4.10775 5.0383 3.92562 5.11358C3.7435 5.18885 3.57803 5.29933 3.43868 5.43868C3.29933 5.57803 3.18885 5.7435 3.11358 5.92562C3.0383 6.10775 2.9997 6.30293 3 6.5V15.5C2.9997 15.6971 3.0383 15.8923 3.11358 16.0744C3.18885 16.2565 3.29933 16.422 3.43868 16.5613C3.57803 16.7007 3.7435 16.8111 3.92562 16.8864C4.10775 16.9617 4.30293 17.0003 4.5 17H11.25V18.5H4.5C3.70435 18.5 2.94129 18.1839 2.37868 17.6213C1.81607 17.0587 1.5 16.2956 1.5 15.5V6.5C1.5 5.70435 1.81607 4.94129 2.37868 4.37868C2.94129 3.81607 3.70435 3.5 4.5 3.5H19.5C20.2956 3.5 21.0587 3.81607 21.6213 4.37868C22.1839 4.94129 22.5 5.70435 22.5 6.5V15.5C22.5 16.2956 22.1839 17.0587 21.6213 17.6213C21.0587 18.1839 20.2956 18.5 19.5 18.5H15.8738L13.302 23Z" fill="white"/>
</svg>
