<svg width="24" height="25" viewBox="0 0 24 25" fill="none" xmlns="http://www.w3.org/2000/svg">
<path d="M20.3402 9.82013L6.34025 2.82013C5.78774 2.54514 5.16386 2.44724 4.55368 2.53978C3.9435 2.63232 3.37671 2.9108 2.93058 3.33724C2.48445 3.76369 2.1807 4.31735 2.06074 4.92274C1.94078 5.52813 2.01045 6.15578 2.26025 6.72013L4.66025 12.0901C4.7147 12.22 4.74275 12.3593 4.74275 12.5001C4.74275 12.6409 4.7147 12.7803 4.66025 12.9101L2.26025 18.2801C2.05695 18.7368 1.971 19.2371 2.01022 19.7355C2.04945 20.2339 2.21259 20.7145 2.48483 21.1338C2.75707 21.5531 3.12977 21.8977 3.56907 22.1363C4.00837 22.375 4.50033 22.5 5.00025 22.5001C5.46848 22.4955 5.92974 22.3861 6.35025 22.1801L20.3502 15.1801C20.8468 14.9303 21.2643 14.5474 21.5559 14.0742C21.8476 13.601 22.0021 13.056 22.0021 12.5001C22.0021 11.9442 21.8476 11.3993 21.5559 10.9261C21.2643 10.4528 20.8468 10.0699 20.3502 9.82013H20.3402ZM19.4502 13.3901L5.45025 20.3901C5.26641 20.4784 5.05998 20.5084 4.85863 20.476C4.65729 20.4436 4.47066 20.3504 4.32376 20.209C4.17686 20.0675 4.07673 19.8845 4.03678 19.6846C3.99683 19.4846 4.01897 19.2772 4.10025 19.0901L6.49025 13.7201C6.52119 13.6484 6.5479 13.575 6.57025 13.5001H13.4602C13.7255 13.5001 13.9798 13.3948 14.1674 13.2072C14.3549 13.0197 14.4602 12.7653 14.4602 12.5001C14.4602 12.2349 14.3549 11.9806 14.1674 11.793C13.9798 11.6055 13.7255 11.5001 13.4602 11.5001H6.57025C6.5479 11.4253 6.52119 11.3518 6.49025 11.2801L4.10025 5.91013C4.01897 5.72309 3.99683 5.51568 4.03678 5.3157C4.07673 5.11572 4.17686 4.93273 4.32376 4.79128C4.47066 4.64982 4.65729 4.55666 4.85863 4.52428C5.05998 4.4919 5.26641 4.52186 5.45025 4.61013L19.4502 11.6101C19.614 11.694 19.7515 11.8215 19.8475 11.9786C19.9435 12.1356 19.9943 12.3161 19.9943 12.5001C19.9943 12.6842 19.9435 12.8647 19.8475 13.0217C19.7515 13.1787 19.614 13.3062 19.4502 13.3901Z" fill="black"/>
</svg>
