<svg width="99" height="18" viewBox="0 0 99 18" fill="none" xmlns="http://www.w3.org/2000/svg">
<path d="M29 0.5C29.0685 0.500061 29.1421 0.514442 29.2236 0.550781L29.3076 0.594727C29.3678 0.630653 29.4212 0.681081 29.4658 0.758789L29.5078 0.845703V0.84668L31.4795 5.74512L31.5928 6.02832L31.8975 6.05664L36.9785 6.52246C37.1045 6.54246 37.1851 6.57617 37.2373 6.60938L37.2822 6.64258C37.336 6.69186 37.3843 6.75588 37.4248 6.84082L37.4629 6.93359C37.4929 7.02023 37.5047 7.10642 37.498 7.19629L37.4854 7.28809C37.4652 7.3863 37.414 7.48475 37.3047 7.58691L33.4473 11.0762L33.2314 11.2715L33.2949 11.5557L34.4512 16.7568C34.4756 16.8683 34.4723 16.9539 34.4541 17.0234L34.4316 17.0889C34.3889 17.1829 34.3353 17.2607 34.2715 17.3262L34.2041 17.3877C34.1461 17.4347 34.0813 17.4674 34.0039 17.4854L33.9219 17.498C33.8583 17.5038 33.7922 17.4952 33.7178 17.46L33.6406 17.416L33.6289 17.4082L29.2666 14.6562L29 14.4883L28.7324 14.6562L24.3701 17.4082L24.3594 17.415C24.2515 17.4869 24.162 17.5055 24.0762 17.498L23.9951 17.4854C23.9439 17.4736 23.8983 17.4556 23.8564 17.4307L23.7959 17.3887C23.7243 17.3303 23.6641 17.2605 23.6143 17.1768L23.5674 17.0879C23.5316 17.0093 23.5157 16.9059 23.5488 16.7549L23.5479 16.7539L24.7041 11.5557L24.7676 11.2715L24.5518 11.0762L20.6943 7.58691C20.6132 7.51008 20.5641 7.43545 20.5361 7.36133L20.5146 7.28711C20.4954 7.19349 20.4949 7.10529 20.5127 7.01855L20.5371 6.93262C20.5712 6.83384 20.6145 6.75742 20.665 6.69727L20.7168 6.64258C20.7639 6.5994 20.8518 6.54865 21.0186 6.52246L26.1016 6.05664L26.4062 6.02832L26.5195 5.74512L28.4912 0.84668L28.4922 0.845703C28.5307 0.748803 28.5784 0.682758 28.6338 0.635742L28.6914 0.594727C28.8076 0.525339 28.9086 0.5 29 0.5Z" stroke="black"/>
<path d="M50 0.5C50.0685 0.500061 50.1421 0.514442 50.2236 0.550781L50.3076 0.594727C50.3678 0.630653 50.4212 0.681081 50.4658 0.758789L50.5078 0.845703V0.84668L52.4795 5.74512L52.5928 6.02832L52.8975 6.05664L57.9785 6.52246C58.1045 6.54246 58.1851 6.57617 58.2373 6.60938L58.2822 6.64258C58.336 6.69186 58.3843 6.75588 58.4248 6.84082L58.4629 6.93359C58.4929 7.02023 58.5047 7.10642 58.498 7.19629L58.4854 7.28809C58.4652 7.3863 58.414 7.48475 58.3047 7.58691L54.4473 11.0762L54.2314 11.2715L54.2949 11.5557L55.4512 16.7568C55.4838 16.9058 55.4679 17.0091 55.4316 17.0889C55.3889 17.1829 55.3353 17.2607 55.2715 17.3262L55.2041 17.3877C55.1461 17.4347 55.0813 17.4674 55.0039 17.4854L54.9219 17.498C54.8583 17.5038 54.7922 17.4952 54.7178 17.46L54.6406 17.416L54.6289 17.4082L50.2666 14.6562L50 14.4883L49.7324 14.6562L45.3701 17.4082L45.3594 17.415C45.2515 17.4869 45.162 17.5055 45.0762 17.498C44.9903 17.4906 44.9191 17.468 44.8564 17.4307L44.7959 17.3887C44.7243 17.3303 44.6641 17.2605 44.6143 17.1768L44.5674 17.0879C44.5316 17.0093 44.5157 16.9058 44.5488 16.7549L44.5479 16.7539L45.7041 11.5557L45.7676 11.2715L45.5518 11.0762L41.6943 7.58691C41.6132 7.51008 41.5641 7.43545 41.5361 7.36133L41.5146 7.28711C41.4954 7.19349 41.4949 7.10529 41.5127 7.01855L41.5371 6.93262C41.5712 6.83384 41.6145 6.75742 41.665 6.69727L41.7168 6.64258C41.7639 6.5994 41.8518 6.54865 42.0186 6.52246L47.1016 6.05664L47.4062 6.02832L47.5195 5.74512L49.4912 0.84668L49.4922 0.845703C49.5307 0.748802 49.5784 0.682758 49.6338 0.635742L49.6914 0.594727C49.8076 0.525339 49.9086 0.5 50 0.5Z" stroke="black"/>
<path d="M70 0.5C70.0685 0.500061 70.1421 0.514442 70.2236 0.550781L70.3076 0.594727C70.3678 0.630653 70.4212 0.681081 70.4658 0.758789L70.5078 0.845703V0.84668L72.4795 5.74512L72.5928 6.02832L72.8975 6.05664L77.9785 6.52246C78.1045 6.54246 78.1851 6.57617 78.2373 6.60938L78.2822 6.64258C78.336 6.69186 78.3843 6.75588 78.4248 6.84082L78.4629 6.93359C78.4929 7.02023 78.5047 7.10642 78.498 7.19629L78.4854 7.28809C78.4652 7.3863 78.414 7.48475 78.3047 7.58691L74.4473 11.0762L74.2314 11.2715L74.2949 11.5557L75.4512 16.7568C75.4756 16.8683 75.4723 16.9539 75.4541 17.0234L75.4316 17.0889C75.3889 17.1829 75.3353 17.2607 75.2715 17.3262L75.2041 17.3877C75.1461 17.4347 75.0813 17.4674 75.0039 17.4854L74.9219 17.498C74.8583 17.5038 74.7922 17.4952 74.7178 17.46L74.6406 17.416L74.6289 17.4082L70.2666 14.6562L70 14.4883L69.7324 14.6562L65.3701 17.4082L65.3594 17.415C65.2515 17.4869 65.162 17.5055 65.0762 17.498L64.9951 17.4854C64.9439 17.4736 64.8983 17.4556 64.8564 17.4307L64.7959 17.3887C64.7243 17.3303 64.6641 17.2605 64.6143 17.1768L64.5674 17.0879C64.5316 17.0093 64.5157 16.9059 64.5488 16.7549L64.5479 16.7539L65.7041 11.5557L65.7676 11.2715L65.5518 11.0762L61.6943 7.58691C61.6132 7.51008 61.5641 7.43545 61.5361 7.36133L61.5146 7.28711C61.4954 7.19349 61.4949 7.10529 61.5127 7.01855L61.5371 6.93262C61.5712 6.83384 61.6145 6.75742 61.665 6.69727L61.7168 6.64258C61.7639 6.5994 61.8518 6.54865 62.0186 6.52246L67.1016 6.05664L67.4062 6.02832L67.5195 5.74512L69.4912 0.84668L69.4922 0.845703C69.5307 0.748803 69.5784 0.682758 69.6338 0.635742L69.6914 0.594727C69.8076 0.525339 69.9086 0.5 70 0.5Z" stroke="black"/>
<path d="M90 0.5C90.0685 0.500061 90.1421 0.514442 90.2236 0.550781L90.3076 0.594727C90.3678 0.630653 90.4212 0.681081 90.4658 0.758789L90.5078 0.845703V0.84668L92.4795 5.74512L92.5928 6.02832L92.8975 6.05664L97.9785 6.52246C98.1045 6.54246 98.1851 6.57617 98.2373 6.60938L98.2822 6.64258C98.336 6.69186 98.3843 6.75588 98.4248 6.84082L98.4629 6.93359C98.4929 7.02023 98.5047 7.10642 98.498 7.19629L98.4854 7.28809C98.4652 7.3863 98.414 7.48475 98.3047 7.58691L94.4473 11.0762L94.2314 11.2715L94.2949 11.5557L95.4512 16.7568C95.4838 16.9058 95.4679 17.0091 95.4316 17.0889C95.3889 17.1829 95.3353 17.2607 95.2715 17.3262L95.2041 17.3877C95.1461 17.4347 95.0813 17.4674 95.0039 17.4854L94.9219 17.498C94.8583 17.5038 94.7922 17.4952 94.7178 17.46L94.6406 17.416L94.6289 17.4082L90.2666 14.6562L90 14.4883L89.7324 14.6562L85.3701 17.4082L85.3594 17.415C85.2515 17.4869 85.162 17.5055 85.0762 17.498C84.9903 17.4906 84.9191 17.468 84.8564 17.4307L84.7959 17.3887C84.7243 17.3303 84.6641 17.2605 84.6143 17.1768L84.5674 17.0879C84.5316 17.0093 84.5157 16.9058 84.5488 16.7549L84.5479 16.7539L85.7041 11.5557L85.7676 11.2715L85.5518 11.0762L81.6943 7.58691C81.6132 7.51008 81.5641 7.43545 81.5361 7.36133L81.5146 7.28711C81.4954 7.19349 81.4949 7.10529 81.5127 7.01855L81.5371 6.93262C81.5712 6.83384 81.6145 6.75742 81.665 6.69727L81.7168 6.64258C81.7639 6.5994 81.8518 6.54865 82.0186 6.52246L87.1016 6.05664L87.4062 6.02832L87.5195 5.74512L89.4912 0.84668L89.4922 0.845703C89.5307 0.748802 89.5784 0.682758 89.6338 0.635742L89.6914 0.594727C89.8076 0.525339 89.9086 0.5 90 0.5Z" stroke="black"/>
<path d="M9 0.5C9.06854 0.500061 9.14209 0.514442 9.22363 0.550781L9.30762 0.594727C9.36775 0.630653 9.42118 0.681081 9.46582 0.758789L9.50781 0.845703V0.84668L11.4795 5.74512L11.5928 6.02832L11.8975 6.05664L16.9785 6.52246C17.1045 6.54246 17.1851 6.57617 17.2373 6.60938L17.2822 6.64258C17.336 6.69186 17.3843 6.75588 17.4248 6.84082L17.4629 6.93359C17.4929 7.02023 17.5047 7.10642 17.498 7.19629L17.4854 7.28809C17.4652 7.3863 17.414 7.48475 17.3047 7.58691L13.4473 11.0762L13.2314 11.2715L13.2949 11.5557L14.4512 16.7568C14.4756 16.8683 14.4723 16.9539 14.4541 17.0234L14.4316 17.0889C14.3889 17.1829 14.3353 17.2607 14.2715 17.3262L14.2041 17.3877C14.1461 17.4347 14.0813 17.4674 14.0039 17.4854L13.9219 17.498C13.8583 17.5038 13.7922 17.4952 13.7178 17.46L13.6406 17.416L13.6289 17.4082L9.2666 14.6562L9 14.4883L8.73242 14.6562L4.37012 17.4082L4.35938 17.415C4.25152 17.4869 4.16199 17.5055 4.07617 17.498L3.99512 17.4854C3.94389 17.4736 3.89826 17.4556 3.85645 17.4307L3.7959 17.3887C3.72429 17.3303 3.66411 17.2605 3.61426 17.1768L3.56738 17.0879C3.53158 17.0093 3.51566 16.9059 3.54883 16.7549L3.54785 16.7539L4.7041 11.5557L4.76758 11.2715L4.55176 11.0762L0.694336 7.58691C0.613221 7.51008 0.564088 7.43545 0.536133 7.36133L0.514648 7.28711C0.49541 7.19349 0.494947 7.10529 0.512695 7.01855L0.537109 6.93262C0.571196 6.83384 0.614518 6.75742 0.665039 6.69727L0.716797 6.64258C0.763897 6.5994 0.851757 6.54865 1.01855 6.52246L6.10156 6.05664L6.40625 6.02832L6.51953 5.74512L8.49121 0.84668L8.49219 0.845703C8.53075 0.748803 8.57841 0.682758 8.63379 0.635742L8.69141 0.594727C8.8076 0.525339 8.90857 0.5 9 0.5Z" stroke="black"/>
</svg>
