<svg width="24" height="24" viewBox="0 0 24 24" fill="none" xmlns="http://www.w3.org/2000/svg">
<path d="M6.65625 0C7.28614 0 7.89023 0.252856 8.33563 0.702944C8.78103 1.15303 9.03125 1.76348 9.03125 2.4C9.03125 3.03652 8.78103 3.64697 8.33563 4.09706C7.89023 4.54714 7.28614 4.8 6.65625 4.8C6.02636 4.8 5.42227 4.54714 4.97687 4.09706C4.53147 3.64697 4.28125 3.03652 4.28125 2.4C4.28125 1.76348 4.53147 1.15303 4.97687 0.702944C5.42227 0.252856 6.02636 0 6.65625 0ZM4.875 6H8.4375C9.06739 6 9.67148 6.25286 10.1169 6.70294C10.5623 7.15303 10.8125 7.76348 10.8125 8.4V15H9.03125V24H4.28125V15H2.5V8.4C2.5 7.76348 2.75022 7.15303 3.19562 6.70294C3.64102 6.25286 4.24511 6 4.875 6ZM17.3438 0C17.9736 0 18.5777 0.252856 19.0231 0.702944C19.4685 1.15303 19.7188 1.76348 19.7188 2.4C19.7188 3.03652 19.4685 3.64697 19.0231 4.09706C18.5777 4.54714 17.9736 4.8 17.3438 4.8C16.7139 4.8 16.1098 4.54714 15.6644 4.09706C15.219 3.64697 14.9688 3.03652 14.9688 2.4C14.9688 1.76348 15.219 1.15303 15.6644 0.702944C16.1098 0.252856 16.7139 0 17.3438 0ZM15.5625 6H19.125C19.7549 6 20.359 6.25286 20.8044 6.70294C21.2498 7.15303 21.5 7.76348 21.5 8.4V15H19.7188V24H14.9688V15H13.1875V8.4C13.1875 7.76348 13.4377 7.15303 13.8831 6.70294C14.3285 6.25286 14.9326 6 15.5625 6Z" fill="#23262C"/>
</svg>
